<svg width="180" height="180" viewBox="0 0 180 180" fill="none" xmlns="http://www.w3.org/2000/svg">
<rect x="0.5" y="0.5" width="179" height="179" rx="11.5" stroke="#4B4B4B" stroke-dasharray="4 4"/>
<path d="M75.25 62.25H104.75" stroke="#4B4B4B" stroke-width="2" stroke-linecap="round"/>
<path d="M90.25 47.25L90.25 76.75" stroke="#4B4B4B" stroke-width="2" stroke-linecap="round"/>
<path d="M53.0234 119.062V139.945H51.1719V119.062H53.0234ZM36.6172 127.945C36.6289 123.516 38.832 120.691 41.9375 120.68C45.0312 120.691 47.2695 123.516 47.2578 127.945C47.2695 132.387 45.0312 135.199 41.9375 135.188C38.832 135.199 36.6289 132.387 36.6172 127.945ZM38.3984 127.945C38.3984 131.332 39.8516 133.559 41.9375 133.547C44.0352 133.559 45.4766 131.332 45.4766 127.945C45.4766 124.559 44.0352 122.332 41.9375 122.32C39.8516 122.332 38.3984 124.559 38.3984 127.945ZM67.4375 121.125V134.672H57.8047V121.125H67.4375ZM59.6094 133.172H65.6328V122.602H59.6094V133.172ZM71.9141 139.945V119.062H73.7656V139.945H71.9141ZM84.7812 125.461C84.793 129 87.3594 132.598 90.4297 133.922L89.3984 135.375C86.9609 134.273 84.8633 131.871 83.8906 128.988C82.918 132.047 80.8086 134.695 78.4297 135.891L77.3281 134.438C80.3164 133.008 82.918 129.07 82.9297 125.461V122.742H78.0078V121.219H89.75V122.742H84.7812V125.461ZM92.6562 139.898V119.062H94.5078V139.898H92.6562ZM123.102 128.977V130.523H104.094V128.977H123.102ZM106.391 136.102C106.379 133.711 109.086 132.352 113.586 132.352C118.051 132.352 120.734 133.711 120.758 136.102C120.734 138.516 118.051 139.852 113.586 139.852C109.086 139.852 106.379 138.516 106.391 136.102ZM106.508 126.984V119.906H120.734V121.453H108.312V125.484H120.875V126.984H106.508ZM108.266 136.102C108.242 137.566 110.246 138.398 113.586 138.398C116.891 138.398 118.895 137.566 118.906 136.102C118.895 134.648 116.891 133.805 113.586 133.781C110.246 133.805 108.242 134.648 108.266 136.102ZM143.891 130.547V132.07H124.812V130.547H133.438V128.344H127.297V123.258H139.578V121.102H127.227V119.602H141.43V124.641H129.125V126.867H141.875V128.344H135.242V130.547H143.891ZM126.945 135.164V133.664H141.547V139.711H139.695V135.164H126.945Z" fill="#4B4B4B"/>
</svg>
