<svg width="28" height="28" viewBox="0 0 28 28" fill="none" xmlns="http://www.w3.org/2000/svg">
<g id="Linear / Time / Calendar Minimalistic">
<path id="Vector" d="M2.27734 13.6668C2.27734 9.37176 2.27734 7.22425 3.61164 5.88996C4.94593 4.55566 7.09344 4.55566 11.3885 4.55566H15.944C20.239 4.55566 22.3865 4.55566 23.7208 5.88996C25.0551 7.22425 25.0551 9.37176 25.0551 13.6668V15.9446C25.0551 20.2396 25.0551 22.3871 23.7208 23.7214C22.3865 25.0557 20.239 25.0557 15.944 25.0557H11.3885C7.09344 25.0557 4.94593 25.0557 3.61164 23.7214C2.27734 22.3871 2.27734 20.2396 2.27734 15.9446V13.6668Z" stroke="#4B4B4B" stroke-width="2.5"/>
<path id="Vector_2" d="M7.97266 4.5555V2.84717" stroke="#4B4B4B" stroke-width="2.5" stroke-linecap="round"/>
<path id="Vector_3" d="M19.3613 4.5555V2.84717" stroke="#4B4B4B" stroke-width="2.5" stroke-linecap="round"/>
<path id="Vector_4" d="M2.84766 10.25H24.4865" stroke="#4B4B4B" stroke-width="2.5" stroke-linecap="round"/>
</g>
</svg>
