<svg width="28" height="28" viewBox="0 0 28 28" fill="none" xmlns="http://www.w3.org/2000/svg">
<g id="Linear / Time / Calendar Minimalistic">
<path id="Vector" d="M2.27734 13.6658C2.27734 9.37078 2.27734 7.22327 3.61164 5.88898C4.94593 4.55469 7.09344 4.55469 11.3885 4.55469H15.944C20.239 4.55469 22.3865 4.55469 23.7208 5.88898C25.0551 7.22327 25.0551 9.37078 25.0551 13.6658V15.9436C25.0551 20.2386 25.0551 22.3861 23.7208 23.7204C22.3865 25.0547 20.239 25.0547 15.944 25.0547H11.3885C7.09344 25.0547 4.94593 25.0547 3.61164 23.7204C2.27734 22.3861 2.27734 20.2386 2.27734 15.9436V13.6658Z" stroke="#4B4B4B" stroke-width="2.5"/>
<path id="Vector_2" d="M7.97266 4.55599V2.84766" stroke="#4B4B4B" stroke-width="2.5" stroke-linecap="round"/>
<path id="Vector_3" d="M19.3613 4.55599V2.84766" stroke="#4B4B4B" stroke-width="2.5" stroke-linecap="round"/>
<path id="Vector_4" d="M2.84766 10.25H24.4865" stroke="#4B4B4B" stroke-width="2.5" stroke-linecap="round"/>
</g>
</svg>
