<svg width="56" height="56" viewBox="0 0 56 56" fill="none" xmlns="http://www.w3.org/2000/svg">
<g id="Star">
<path id="Vector" d="M43.0913 51.5007L43.0892 51.5007C42.932 51.5013 42.7787 51.4526 42.6508 51.3614C42.6502 51.3609 42.6496 51.3605 42.649 51.3601L28.5863 41.1648L27.9993 40.7393L27.4124 41.1648L13.3456 51.3629L13.3455 51.3631C13.2167 51.4565 13.0615 51.5065 12.9024 51.5059C12.7433 51.5054 12.5885 51.4542 12.4604 51.3598C12.3323 51.2655 12.2375 51.1328 12.1897 50.9811C12.1419 50.8293 12.1437 50.6663 12.1947 50.5156L12.1949 50.5149L17.6811 34.2651L17.9231 33.5483L17.2992 33.1205L3.08049 23.3697L3.08006 23.3694C2.94807 23.279 2.84844 23.1488 2.79575 22.9977C2.74306 22.8466 2.74005 22.6827 2.78718 22.5298C2.8343 22.3769 2.92909 22.2431 3.05768 22.1479C3.18598 22.0529 3.34121 22.0013 3.50081 22.0007H21.0409H21.7674L21.9919 21.3097L27.2857 5.01832L27.2859 5.01771C27.3347 4.86697 27.4301 4.73558 27.5583 4.6424C27.6865 4.54921 27.8409 4.49902 27.9993 4.49902C28.1578 4.49902 28.3122 4.54922 28.4403 4.6424C28.5685 4.73558 28.6639 4.86697 28.7128 5.01771L28.7129 5.01823L34.0067 21.3151L34.2311 22.0062H34.9578H52.4993H52.4998C52.66 22.0061 52.816 22.0573 52.945 22.1523C53.074 22.2473 53.1691 22.3811 53.2166 22.5341L54.1717 22.2381L53.2166 22.5341C53.264 22.6871 53.2612 22.8513 53.2085 23.0026C53.1559 23.1539 53.0562 23.2844 52.924 23.3749L52.924 23.3749L38.6997 33.1203L38.0754 33.548L38.3174 34.265L43.8004 50.5105L43.8005 50.5107C43.8386 50.6234 43.8493 50.7436 43.8317 50.8612C43.8142 50.9789 43.7689 51.0907 43.6996 51.1875C43.6303 51.2842 43.539 51.363 43.4332 51.4175C43.3275 51.472 43.2102 51.5005 43.0913 51.5007Z" stroke="#112211" stroke-width="2"/>
</g>
</svg>
