<svg width="131" height="178" viewBox="0 0 131 178" fill="none" xmlns="http://www.w3.org/2000/svg">
<g id="Group 151">
<path id="Union" fill-rule="evenodd" clip-rule="evenodd" d="M0 130.168V44.9736L44.9736 0H106.397C119.652 0 130.397 10.7452 130.397 24V112.29V130.168V153.259C130.397 166.514 119.652 177.259 106.397 177.259H24C10.7452 177.259 5.65451e-06 166.514 5.65451e-06 153.259V130.184C1.88504e-06 130.179 0 130.173 0 130.168Z" fill="#DDDDDD"/>
<path id="Intersect" fill-rule="evenodd" clip-rule="evenodd" d="M3.78197 46.8616C1.10091 46.8616 -0.233772 43.6129 1.6729 41.7281L41.7525 2.10738C43.6473 0.234249 46.8616 1.57649 46.8616 4.24089V22.8615C46.8616 36.1164 36.1164 46.8616 22.8616 46.8616H3.78197Z" fill="#79747E"/>
</g>
</svg>
