<svg width="20" height="20" viewBox="0 0 20 20" fill="none" xmlns="http://www.w3.org/2000/svg">
<g id="Icon_notification_24px">
<g id="Vector">
<path d="M6.95983 16.8685C7.66073 17.7595 8.76182 18.3337 10 18.3337C11.2382 18.3337 12.3393 17.7595 13.0402 16.8685C11.022 17.142 8.97798 17.142 6.95983 16.8685Z" fill="#A1A1A1"/>
<path d="M15.6243 7.50032V8.08708C15.6243 8.79123 15.8252 9.47964 16.2018 10.0655L17.1247 11.5013C17.9676 12.8127 17.3241 14.5953 15.858 15.01C12.0227 16.0948 7.97728 16.0948 4.14197 15.01C2.67587 14.5953 2.03235 12.8127 2.8753 11.5013L3.79816 10.0655C4.17476 9.47964 4.37573 8.79123 4.37573 8.08708V7.50032C4.37573 4.27866 6.8938 1.66699 10 1.66699C13.1062 1.66699 15.6243 4.27866 15.6243 7.50032Z" fill="#A1A1A1"/>
</g>
</g>
</svg>
