<svg width="20" height="20" viewBox="0 0 20 20" fill="none" xmlns="http://www.w3.org/2000/svg">
<path d="M10.833 4.16634C10.833 3.7061 10.4599 3.33301 9.99967 3.33301C9.53944 3.33301 9.16634 3.7061 9.16634 4.16634V9.16634H4.16634C3.7061 9.16634 3.33301 9.53944 3.33301 9.99967C3.33301 10.4599 3.7061 10.833 4.16634 10.833H9.16634V15.833C9.16634 16.2932 9.53944 16.6663 9.99967 16.6663C10.4599 16.6663 10.833 16.2932 10.833 15.833V10.833H15.833C16.2932 10.833 16.6663 10.4599 16.6663 9.99967C16.6663 9.53944 16.2932 9.16634 15.833 9.16634H10.833V4.16634Z" fill="#4B4B4B"/>
</svg>
