<svg width="56" height="56" viewBox="0 0 56 56" fill="none" xmlns="http://www.w3.org/2000/svg">
<g id="Star">
<path id="Vector" d="M43.0931 52.5007C42.7247 52.5021 42.3653 52.3873 42.066 52.1726L27.9993 41.9744L13.9326 52.1726C13.6321 52.3905 13.27 52.5073 12.8988 52.5059C12.5275 52.5046 12.1663 52.3852 11.8674 52.165C11.5684 51.9449 11.3473 51.6354 11.2358 51.2812C11.1244 50.9271 11.1284 50.5467 11.2474 50.1951L16.7337 33.9452L2.51493 24.1944C2.20694 23.9835 1.97449 23.6795 1.85154 23.327C1.72859 22.9746 1.72158 22.592 1.83154 22.2352C1.9415 21.8785 2.16266 21.5662 2.46272 21.3441C2.76277 21.122 3.12599 21.0017 3.49931 21.0007H21.0409L26.3346 4.70929C26.4487 4.35756 26.6712 4.05099 26.9702 3.83357C27.2693 3.61614 27.6296 3.49902 27.9993 3.49902C28.3691 3.49902 28.7293 3.61614 29.0284 3.83357C29.3274 4.05099 29.55 4.35756 29.664 4.70929L34.9578 21.0062H52.4993C52.8731 21.006 53.2371 21.1255 53.5381 21.3472C53.839 21.5688 54.0611 21.8811 54.1717 22.2381C54.2824 22.5951 54.2758 22.9782 54.153 23.3312C54.0302 23.6842 53.7975 23.9887 53.4892 24.1999L39.2649 33.9452L44.7479 50.1907C44.8367 50.4537 44.8617 50.7341 44.8208 51.0087C44.7799 51.2832 44.6742 51.5441 44.5126 51.7698C44.3509 51.9955 44.1378 52.1795 43.891 52.3066C43.6442 52.4336 43.3707 52.5002 43.0931 52.5007Z" fill="#FFC23D"/>
</g>
</svg>
